<?xml version="1.0" encoding="UTF-8" standalone="no"?><svg xmlns="http://www.w3.org/2000/svg" xmlns:xlink="http://www.w3.org/1999/xlink" contentScriptType="application/ecmascript" contentStyleType="text/css" height="700px" preserveAspectRatio="none" style="width:1014px;height:700px;background:#00000000;" version="1.1" viewBox="0 0 1014 700" width="1014.5833px" zoomAndPan="magnify"><defs/><g><polygon fill="#4D4D4D" points="275,102.4618,275,102.5347,277.0833,102.3179,279.1667,102.5289,281.25,102.6005,283.3333,102.214,285.4167,102.4618,285.3357,102.4618,284.9724,112.8606,285.0172,123.2595,285.3457,133.6583,284.6965,144.0572,285.9934,154.4561,284.7601,164.8549,285.2107,175.2538,285.8666,185.6527,285.3273,196.0515,285.4877,206.4504,285.3834,216.8493,285.6026,227.2481,285.6658,237.647,286.0268,248.0459,286.1157,258.4447,286.1242,268.8436,285.6819,279.2425,285.8996,289.6413,286.1482,300.0402,284.6654,310.439,286.1234,320.8379,285.1078,331.2368,285.9727,341.6356,284.901,352.0345,285.3453,362.4334,286.1892,372.8322,285.3659,383.2311,285.5264,393.63,285.7694,404.0288,285.8502,414.4277,285.4126,424.8266,285.4167,435.2254,285.4167,435.3252,283.3333,435.0267,281.25,435.3242,279.1667,435.4158,277.0833,435.3798,275,435.2254,275.6386,435.2254,274.4968,424.8266,274.3206,414.4277,274.3527,404.0288,274.9387,393.63,274.7953,383.2311,275.7098,372.8322,274.818,362.4334,274.6427,352.0345,275.2378,341.6356,274.3054,331.2368,274.4592,320.8379,275.676,310.439,275.4538,300.0402,275.7651,289.6413,274.6648,279.2425,275.3325,268.8436,275.615,258.4447,274.5079,248.0459,274.9001,237.647,275.1312,227.2481,275.6789,216.8493,274.9956,206.4504,275.4818,196.0515,274.4231,185.6527,274.2945,175.2538,275.5246,164.8549,274.2532,154.4561,275.5302,144.0572,275.2152,133.6583,274.7209,123.2595,274.6315,112.8606,275,102.4618" style="stroke:#555555;stroke-width:1.0416666666666667;"/><polygon fill="#4D4D4D" points="482.2917,149.526,482.2917,149.5989,484.375,149.3821,486.4583,149.5931,488.5417,149.6647,490.625,149.2783,492.7083,149.526,492.6274,149.526,492.2641,158.9388,492.3089,168.3516,492.6373,177.7645,491.9882,187.1773,492.7083,196.5902,492.7083,196.7824,490.625,196.3713,488.5417,196.5215,486.4583,196.7402,484.375,196.5604,482.2917,196.5902,482.3627,196.5902,482.2584,187.1773,482.4776,177.7645,482.5408,168.3516,482.9018,158.9388,482.2917,149.526" style="stroke:#555555;stroke-width:1.0416666666666667;"/><polygon fill="#4D4D4D" points="704.6875,243.6544,704.6875,243.7274,706.7708,243.5105,708.8542,243.7215,710.9375,243.7932,713.0208,243.4067,715.1042,243.6544,715.0232,243.6544,714.6599,253.0672,714.7047,262.4801,715.0332,271.8929,714.384,281.3057,715.1042,290.7186,715.1042,290.9108,713.0208,290.4997,710.9375,290.6499,708.8542,290.8686,706.7708,290.6888,704.6875,290.7186,704.7586,290.7186,704.6542,281.3057,704.8735,271.8929,704.9366,262.4801,705.2976,253.0672,704.6875,243.6544" style="stroke:#555555;stroke-width:1.0416666666666667;"/><polygon fill="#4D4D4D" points="928.6458,482.2896,928.6458,482.3626,930.7292,482.1458,932.8125,482.3567,934.8958,482.4284,936.9792,482.0419,939.0625,482.2896,938.9815,482.2896,938.6182,492.8212,938.663,503.3529,938.9915,513.8845,938.3423,524.4161,939.6392,534.9477,938.406,545.4793,938.8565,556.0109,939.5124,566.5426,938.9731,577.0742,939.1336,587.6058,939.0292,598.1374,939.2485,608.669,939.3116,619.2006,939.0625,629.7323,939.0625,629.9356,936.9792,629.9653,934.8958,629.9681,932.8125,629.8207,930.7292,629.8932,928.6458,629.7323,929.3773,629.7323,927.8946,619.2006,929.3526,608.669,928.337,598.1374,929.2019,587.6058,928.1302,577.0742,928.5745,566.5426,929.4183,556.0109,928.5951,545.4793,928.7555,534.9477,928.9986,524.4161,929.0794,513.8845,928.6418,503.3529,928.945,492.8212,928.6458,482.2896" style="stroke:#555555;stroke-width:1.0416666666666667;"/><path d="M77.0833,53.3142 L77.3753,53.3142 L76.5079,63.7558 L77.3518,74.1973 L77.6384,84.6388 L76.0925,95.0804 L76.9754,105.5219 L76.491,115.9635 L76.5507,126.405 L76.9887,136.8466 L76.1231,147.2881 L77.8523,157.7297 L76.2079,168.1712 L76.8087,178.6127 L77.6833,189.0543 L76.9642,199.4958 L77.1781,209.9374 L77.039,220.3789 L77.3313,230.8205 L77.4155,241.262 L77.8968,251.7036 L78.0154,262.1451 L78.0267,272.5866 L77.437,283.0282 L77.7272,293.4697 L78.0587,303.9113 L76.0817,314.3528 L78.0257,324.7944 L76.6715,335.2359 L77.8247,345.6775 L76.3958,356.119 L76.9882,366.5606 L78.1133,377.0021 L77.0156,387.4436 L77.2296,397.8852 L77.5536,408.3267 L77.6614,418.7683 L77.0779,429.2098 L77.4822,439.6514 L76.2883,450.0929 L77.4783,460.5345 L77.8447,470.976 L77.7007,481.4175 L77.9348,491.8591 L76.4124,502.3006 L76.1775,512.7422 L76.2203,523.1837 L77.0016,533.6253 L76.8104,544.0668 L78.0297,554.5084 L76.8407,564.9499 L76.6069,575.3914 L77.4004,585.833 L76.1572,596.2745 L76.3623,606.7161 L77.9847,617.1576 L77.6884,627.5992 L78.1035,638.0407 L77.0833,648.4823 " fill="none" style="stroke:#555555;stroke-width:2.0833333333333335;stroke-dasharray:5.0,5.0;"/><path d="M280.2083,53.3142 L280.5003,53.3142 L279.6329,63.7558 L280.4768,74.1973 L280.7634,84.6388 L279.2175,95.0804 L280.1004,105.5219 L279.616,115.9635 L279.6757,126.405 L280.1137,136.8466 L279.2481,147.2881 L280.9773,157.7297 L279.3329,168.1712 L279.9337,178.6127 L280.8083,189.0543 L280.0892,199.4958 L280.3031,209.9374 L280.164,220.3789 L280.4563,230.8205 L280.5405,241.262 L281.0218,251.7036 L281.1404,262.1451 L281.1517,272.5866 L280.562,283.0282 L280.8522,293.4697 L281.1837,303.9113 L279.2067,314.3528 L281.1507,324.7944 L279.7965,335.2359 L280.9497,345.6775 L279.5208,356.119 L280.1132,366.5606 L281.2383,377.0021 L280.1406,387.4436 L280.3546,397.8852 L280.6786,408.3267 L280.7864,418.7683 L280.2029,429.2098 L280.6072,439.6514 L279.4133,450.0929 L280.6033,460.5345 L280.9697,470.976 L280.8257,481.4175 L281.0598,491.8591 L279.5374,502.3006 L279.3025,512.7422 L279.3453,523.1837 L280.1266,533.6253 L279.9354,544.0668 L281.1547,554.5084 L279.9657,564.9499 L279.7319,575.3914 L280.5254,585.833 L279.2822,596.2745 L279.4873,606.7161 L281.1097,617.1576 L280.8134,627.5992 L281.2285,638.0407 L280.2083,648.4823 " fill="none" style="stroke:#555555;stroke-width:2.0833333333333335;stroke-dasharray:5.0,5.0;"/><path d="M487.5,53.3142 L487.7919,53.3142 L486.9246,63.7558 L487.7685,74.1973 L488.0551,84.6388 L486.5092,95.0804 L487.3921,105.5219 L486.9076,115.9635 L486.9674,126.405 L487.4053,136.8466 L486.5398,147.2881 L488.2689,157.7297 L486.6246,168.1712 L487.2253,178.6127 L488.0999,189.0543 L487.3809,199.4958 L487.5948,209.9374 L487.4556,220.3789 L487.748,230.8205 L487.8321,241.262 L488.3135,251.7036 L488.432,262.1451 L488.4434,272.5866 L487.8536,283.0282 L488.1439,293.4697 L488.4753,303.9113 L486.4984,314.3528 L488.4424,324.7944 L487.0882,335.2359 L488.2414,345.6775 L486.8125,356.119 L487.4049,366.5606 L488.53,377.0021 L487.4323,387.4436 L487.6463,397.8852 L487.9703,408.3267 L488.0781,418.7683 L487.4946,429.2098 L487.8989,439.6514 L486.705,450.0929 L487.895,460.5345 L488.2614,470.976 L488.1174,481.4175 L488.3514,491.8591 L486.8291,502.3006 L486.5942,512.7422 L486.6369,523.1837 L487.4182,533.6253 L487.227,544.0668 L488.4464,554.5084 L487.2574,564.9499 L487.0235,575.3914 L487.817,585.833 L486.5738,596.2745 L486.779,606.7161 L488.4013,617.1576 L488.1051,627.5992 L488.5201,638.0407 L487.5,648.4823 " fill="none" style="stroke:#555555;stroke-width:2.0833333333333335;stroke-dasharray:5.0,5.0;"/><path d="M709.375,53.3142 L709.6669,53.3142 L708.7996,63.7558 L709.6435,74.1973 L709.9301,84.6388 L708.3842,95.0804 L709.2671,105.5219 L708.7826,115.9635 L708.8424,126.405 L709.2803,136.8466 L708.4148,147.2881 L710.1439,157.7297 L708.4996,168.1712 L709.1003,178.6127 L709.9749,189.0543 L709.2559,199.4958 L709.4698,209.9374 L709.3306,220.3789 L709.623,230.8205 L709.7071,241.262 L710.1885,251.7036 L710.307,262.1451 L710.3184,272.5866 L709.7286,283.0282 L710.0189,293.4697 L710.3503,303.9113 L708.3734,314.3528 L710.3174,324.7944 L708.9632,335.2359 L710.1164,345.6775 L708.6875,356.119 L709.2799,366.5606 L710.405,377.0021 L709.3073,387.4436 L709.5213,397.8852 L709.8453,408.3267 L709.9531,418.7683 L709.3696,429.2098 L709.7739,439.6514 L708.58,450.0929 L709.77,460.5345 L710.1364,470.976 L709.9924,481.4175 L710.2264,491.8591 L708.7041,502.3006 L708.4692,512.7422 L708.5119,523.1837 L709.2932,533.6253 L709.102,544.0668 L710.3214,554.5084 L709.1324,564.9499 L708.8985,575.3914 L709.692,585.833 L708.4488,596.2745 L708.654,606.7161 L710.2763,617.1576 L709.9801,627.5992 L710.3951,638.0407 L709.375,648.4823 " fill="none" style="stroke:#555555;stroke-width:2.0833333333333335;stroke-dasharray:5.0,5.0;"/><path d="M933.3333,53.3142 L933.6253,53.3142 L932.7579,63.7558 L933.6018,74.1973 L933.8884,84.6388 L932.3425,95.0804 L933.2254,105.5219 L932.741,115.9635 L932.8007,126.405 L933.2387,136.8466 L932.3731,147.2881 L934.1023,157.7297 L932.4579,168.1712 L933.0587,178.6127 L933.9333,189.0543 L933.2142,199.4958 L933.4281,209.9374 L933.289,220.3789 L933.5813,230.8205 L933.6655,241.262 L934.1468,251.7036 L934.2654,262.1451 L934.2767,272.5866 L933.687,283.0282 L933.9772,293.4697 L934.3087,303.9113 L932.3317,314.3528 L934.2757,324.7944 L932.9215,335.2359 L934.0747,345.6775 L932.6458,356.119 L933.2382,366.5606 L934.3633,377.0021 L933.2656,387.4436 L933.4796,397.8852 L933.8036,408.3267 L933.9114,418.7683 L933.3279,429.2098 L933.7322,439.6514 L932.5383,450.0929 L933.7283,460.5345 L934.0947,470.976 L933.9507,481.4175 L934.1848,491.8591 L932.6624,502.3006 L932.4275,512.7422 L932.4703,523.1837 L933.2516,533.6253 L933.0604,544.0668 L934.2797,554.5084 L933.0907,564.9499 L932.8569,575.3914 L933.6504,585.833 L932.4072,596.2745 L932.6123,606.7161 L934.2347,617.1576 L933.9384,627.5992 L934.3535,638.0407 L933.3333,648.4823 " fill="none" style="stroke:#555555;stroke-width:2.0833333333333335;stroke-dasharray:5.0,5.0;"/><polygon points="51.0417,5.2083,51.0417,5.4273,61.4583,4.7767,71.875,5.4097,82.2917,5.6247,92.7083,4.4652,103.125,5.2083,103.1147,5.1834,103.6576,5.3156,104.2526,5.5735,104.8837,5.9187,105.3902,5.9629,106.0713,6.4287,106.2489,6.5023,106.1132,6.9342,106.496,7.581,106.9421,8.2539,107.0201,8.7743,107.2917,9.375,107.3154,9.375,107.2806,17.1212,107.3537,24.8674,107.3747,32.6135,107.495,40.3597,107.2917,48.1059,107.5069,48.195,107.2655,48.7854,106.8852,49.3182,106.7081,49.9352,106.5406,50.5562,106.0713,51.0522,105.9754,50.8208,105.5722,51.5139,104.8534,51.4452,104.3744,51.9556,103.6485,51.8697,103.125,52.2725,103.125,52.2012,92.7083,53.045,82.2917,52.2218,71.875,52.3822,61.4583,52.6253,51.0417,52.2725,51.097,52.4061,50.4519,52.0272,49.9013,51.8765,49.1978,51.3567,48.7224,51.3875,48.0954,51.0522,48.2712,51.125,47.9939,50.522,47.8039,49.9551,47.2082,49.2202,46.9099,48.6085,46.875,48.1059,46.6592,48.1059,46.8546,40.3597,46.8068,32.6135,47.1116,24.8674,46.8143,17.1212,46.875,9.375,46.765,9.3294,47.1923,8.8161,47.1492,8.1079,47.4407,7.5383,48.0595,7.1042,48.0954,6.4287,48.1533,6.5685,48.7822,6.4203,49.2311,5.8373,49.9056,5.7989,50.5309,5.6418,51.0417,5.2083" style="stroke:#333333;stroke-width:1.5625;fill:none;"/><text fill="#2E2E2E" font-family="Segoe Print" font-size="12.5" lengthAdjust="spacing" textLength="35.4167" x="59.375" y="33.5836">Client</text><polygon points="51.0417,647.4406,51.0417,647.6595,61.4583,647.009,71.875,647.6419,82.2917,647.8569,92.7083,646.6975,103.125,647.4406,103.1147,647.4157,103.6576,647.5479,104.2526,647.8057,104.8837,648.151,105.3902,648.1951,106.0713,648.661,106.2489,648.7345,106.1132,649.1665,106.496,649.8132,106.9421,650.4861,107.0201,651.0066,107.2917,651.6073,107.3154,651.6073,107.2806,659.3534,107.3537,667.0996,107.3747,674.8458,107.495,682.592,107.2917,690.3381,107.5069,690.4273,107.2655,691.0176,106.8852,691.5505,106.7081,692.1675,106.5406,692.7885,106.0713,693.2844,105.9754,693.0531,105.5722,693.7462,104.8534,693.6775,104.3744,694.1879,103.6485,694.1019,103.125,694.5048,103.125,694.4334,92.7083,695.2773,82.2917,694.454,71.875,694.6145,61.4583,694.8575,51.0417,694.5048,51.097,694.6383,50.4519,694.2595,49.9013,694.1088,49.1978,693.5889,48.7224,693.6197,48.0954,693.2844,48.2712,693.3573,47.9939,692.7542,47.8039,692.1874,47.2082,691.4525,46.9099,690.8407,46.875,690.3381,46.6592,690.3381,46.8546,682.592,46.8068,674.8458,47.1116,667.0996,46.8143,659.3534,46.875,651.6073,46.765,651.5617,47.1923,651.0483,47.1492,650.3401,47.4407,649.7705,48.0595,649.3365,48.0954,648.661,48.1533,648.8007,48.7822,648.6525,49.2311,648.0696,49.9056,648.0311,50.5309,647.8741,51.0417,647.4406" style="stroke:#333333;stroke-width:1.5625;fill:none;"/><text fill="#2E2E2E" font-family="Segoe Print" font-size="12.5" lengthAdjust="spacing" textLength="35.4167" x="59.375" y="675.8158">Client</text><polygon points="235.4167,5.2083,235.4167,5.4273,245.3704,4.7767,255.3241,5.4097,265.2778,5.6247,275.2315,4.4652,285.1852,5.1274,295.1389,4.7641,305.0926,4.8089,315.0463,5.1373,325,5.2083,324.9081,4.9865,325.6628,5.63,326.0948,5.4943,326.7415,5.8771,327.4144,6.3232,327.9463,6.4287,327.9188,6.4173,328.2122,7.027,328.4242,7.603,328.7358,8.2202,328.9993,8.8175,329.1667,9.375,329.37,9.375,329.3997,17.1212,329.4025,24.8674,329.2551,32.6135,329.3276,40.3597,329.1667,48.1059,329.3919,48.1992,328.6912,48.5993,328.8962,49.3745,328.3393,49.8342,328.3616,50.5338,327.9463,51.0522,327.8805,50.8934,327.3479,51.2743,326.8663,51.7782,326.172,51.7688,325.6032,52.0622,325,52.2725,325,52.6253,315.0463,52.7061,305.0926,52.2685,295.1389,52.5717,285.1852,51.6763,275.2315,52.5688,265.2778,52.8436,255.3241,52.7356,245.3704,52.9111,235.4167,52.2725,235.3525,52.1176,234.7408,51.8192,234.1556,51.585,233.6411,51.5214,233.0335,51.2332,232.4704,51.0522,232.689,51.1427,232.1703,50.4397,231.8722,49.8281,231.8114,49.3147,231.2802,48.6065,231.25,48.1059,231.0697,48.1059,231.4753,40.3597,231.4013,32.6135,231.505,24.8674,231.1383,17.1212,231.25,9.375,231.3524,9.4174,231.6835,8.8642,231.5866,8.1337,231.9515,7.5945,232.2667,7.0347,232.4704,6.4287,232.557,6.6378,233.0591,6.1833,233.7104,6.089,234.1646,5.5188,234.7374,5.2352,235.4167,5.2083" style="stroke:#333333;stroke-width:1.5625;fill:none;"/><text fill="#2E2E2E" font-family="Segoe Print" font-size="12.5" lengthAdjust="spacing" textLength="72.9167" x="243.75" y="33.5836">RateService</text><polygon points="235.4167,647.4406,235.4167,647.6595,245.3704,647.009,255.3241,647.6419,265.2778,647.8569,275.2315,646.6975,285.1852,647.3596,295.1389,646.9963,305.0926,647.0411,315.0463,647.3696,325,647.4406,324.9081,647.2188,325.6628,647.8623,326.0948,647.7266,326.7415,648.1094,327.4144,648.5555,327.9463,648.661,327.9188,648.6496,328.2122,649.2593,328.4242,649.8352,328.7358,650.4525,328.9993,651.0498,329.1667,651.6073,329.37,651.6073,329.3997,659.3534,329.4025,667.0996,329.2551,674.8458,329.3276,682.592,329.1667,690.3381,329.3919,690.4314,328.6912,690.8316,328.8962,691.6068,328.3393,692.0665,328.3616,692.7661,327.9463,693.2844,327.8805,693.1256,327.3479,693.5065,326.8663,694.0105,326.172,694.001,325.6032,694.2945,325,694.5048,325,694.8575,315.0463,694.9384,305.0926,694.5007,295.1389,694.804,285.1852,693.9085,275.2315,694.801,265.2778,695.0758,255.3241,694.9679,245.3704,695.1434,235.4167,694.5048,235.3525,694.3498,234.7408,694.0515,234.1556,693.8173,233.6411,693.7537,233.0335,693.4654,232.4704,693.2844,232.689,693.375,232.1703,692.6719,231.8722,692.0603,231.8114,691.547,231.2802,690.8388,231.25,690.3381,231.0697,690.3381,231.4753,682.592,231.4013,674.8458,231.505,667.0996,231.1383,659.3534,231.25,651.6073,231.3524,651.6497,231.6835,651.0965,231.5866,650.366,231.9515,649.8268,232.2667,649.267,232.4704,648.661,232.557,648.8701,233.0591,648.4156,233.7104,648.3212,234.1646,647.7511,234.7374,647.4674,235.4167,647.4406" style="stroke:#333333;stroke-width:1.5625;fill:none;"/><text fill="#2E2E2E" font-family="Segoe Print" font-size="12.5" lengthAdjust="spacing" textLength="72.9167" x="243.75" y="675.8158">RateService</text><polygon points="427.0833,5.2083,427.0833,5.4273,437.1528,4.7767,447.2222,5.4097,457.2917,5.6247,467.3611,4.4652,477.4306,5.1274,487.5,4.7641,497.5694,4.8089,507.6389,5.1373,517.7083,4.4882,527.7778,5.785,537.8472,4.5518,547.9167,5.2083,547.8904,5.1449,548.5633,5.591,549.0838,5.669,549.6935,5.9625,550.2694,6.1744,550.8629,6.4287,550.9202,6.4524,551.1837,7.0498,551.539,7.6851,551.8104,8.2857,552.0572,8.876,552.0833,9.375,552.1717,9.375,552.2443,17.1212,552.3272,24.8674,551.8329,32.6135,552.3189,40.3597,552.0833,48.1059,551.9882,48.0665,552.0105,48.7661,551.4364,49.2186,551.3291,49.8645,551.3449,50.5614,550.8629,51.0522,550.8565,51.0365,550.2877,51.33,549.7294,51.6489,549.1505,51.9179,548.5054,52.0272,547.9167,52.2725,547.9167,52.5717,537.8472,51.6763,527.7778,52.5688,517.7083,52.8436,507.6389,52.7356,497.5694,52.9111,487.5,51.7693,477.4306,51.5932,467.3611,51.6253,457.2917,52.2112,447.2222,52.0678,437.1528,52.9823,427.0833,52.2725,427.0601,52.2165,426.4485,51.9184,425.9352,51.8576,425.227,51.3264,424.6573,51.1297,424.1371,51.0522,424.3452,51.1384,424.0327,50.5208,423.8845,49.9712,423.3016,49.2416,423.2631,48.7375,422.9167,48.1059,423.1217,48.1059,422.7526,40.3597,422.8834,32.6135,422.9604,24.8674,423.143,17.1212,422.9167,9.375,422.9153,9.3744,423.3091,8.8472,423.2272,8.1229,423.4316,7.5172,424.0545,7.0849,424.1371,6.4287,424.0418,6.1987,424.7939,6.3479,425.343,6.0069,425.8692,5.6105,426.4471,5.3389,427.0833,5.2083" style="stroke:#333333;stroke-width:1.5625;fill:none;"/><text fill="#2E2E2E" font-family="Segoe Print" font-size="12.5" lengthAdjust="spacing" textLength="104.1667" x="435.4167" y="33.5836">RateProviderAPI</text><polygon points="427.0833,647.4406,427.0833,647.6595,437.1528,647.009,447.2222,647.6419,457.2917,647.8569,467.3611,646.6975,477.4306,647.3596,487.5,646.9963,497.5694,647.0411,507.6389,647.3696,517.7083,646.7204,527.7778,648.0173,537.8472,646.784,547.9167,647.4406,547.8904,647.3772,548.5633,647.8232,549.0838,647.9012,549.6935,648.1947,550.2694,648.4067,550.8629,648.661,550.9202,648.6847,551.1837,649.282,551.539,649.9173,551.8104,650.5179,552.0572,651.1083,552.0833,651.6073,552.1717,651.6073,552.2443,659.3534,552.3272,667.0996,551.8329,674.8458,552.3189,682.592,552.0833,690.3381,551.9882,690.2987,552.0105,690.9983,551.4364,691.4509,551.3291,692.0968,551.3449,692.7937,550.8629,693.2844,550.8565,693.2688,550.2877,693.5623,549.7294,693.8812,549.1505,694.1502,548.5054,694.2595,547.9167,694.5048,547.9167,694.804,537.8472,693.9085,527.7778,694.801,517.7083,695.0758,507.6389,694.9679,497.5694,695.1434,487.5,694.0016,477.4306,693.8254,467.3611,693.8575,457.2917,694.4435,447.2222,694.3001,437.1528,695.2146,427.0833,694.5048,427.0601,694.4488,426.4485,694.1507,425.9352,694.0899,425.227,693.5587,424.6573,693.362,424.1371,693.2844,424.3452,693.3706,424.0327,692.753,423.8845,692.2035,423.3016,691.4739,423.2631,690.9698,422.9167,690.3381,423.1217,690.3381,422.7526,682.592,422.8834,674.8458,422.9604,667.0996,423.143,659.3534,422.9167,651.6073,422.9153,651.6067,423.3091,651.0795,423.2272,650.3552,423.4316,649.7495,424.0545,649.3172,424.1371,648.661,424.0418,648.431,424.7939,648.5802,425.343,648.2391,425.8692,647.8428,426.4471,647.5712,427.0833,647.4406" style="stroke:#333333;stroke-width:1.5625;fill:none;"/><text fill="#2E2E2E" font-family="Segoe Print" font-size="12.5" lengthAdjust="spacing" textLength="104.1667" x="435.4167" y="675.8158">RateProviderAPI</text><polygon points="650,5.2083,650,5.4273,659.9826,4.7767,669.9653,5.4097,679.9479,5.6247,689.9306,4.4652,699.9132,5.1274,709.8958,4.7641,719.8785,4.8089,729.8611,5.1373,739.8438,4.4882,749.8264,5.785,759.809,4.5518,769.7917,5.2083,769.7654,5.1449,770.4383,5.591,770.9588,5.669,771.5685,5.9625,772.1444,6.1744,772.7379,6.4287,772.7952,6.4524,773.0587,7.0498,773.414,7.6851,773.6854,8.2857,773.9322,8.876,773.9583,9.375,774.0467,9.375,774.1193,17.1212,774.2022,24.8674,773.7079,32.6135,774.1939,40.3597,773.9583,48.1059,773.8632,48.0665,773.8855,48.7661,773.3114,49.2186,773.2041,49.8645,773.2199,50.5614,772.7379,51.0522,772.7315,51.0365,772.1627,51.33,771.6044,51.6489,771.0255,51.9179,770.3804,52.0272,769.7917,52.2725,769.7917,52.5717,759.809,51.6763,749.8264,52.5688,739.8438,52.8436,729.8611,52.7356,719.8785,52.9111,709.8958,51.7693,699.9132,51.5932,689.9306,51.6253,679.9479,52.2112,669.9653,52.0678,659.9826,52.9823,650,52.2725,649.9768,52.2165,649.3652,51.9184,648.8518,51.8576,648.1436,51.3264,647.574,51.1297,647.0537,51.0522,647.2619,51.1384,646.9494,50.5208,646.8012,49.9712,646.2183,49.2416,646.1798,48.7375,645.8333,48.1059,646.0383,48.1059,645.6693,40.3597,645.8,32.6135,645.8771,24.8674,646.0596,17.1212,645.8333,9.375,645.832,9.3744,646.2258,8.8472,646.1438,8.1229,646.3483,7.5172,646.9712,7.0849,647.0537,6.4287,646.9585,6.1987,647.7106,6.3479,648.2597,6.0069,648.7859,5.6105,649.3637,5.3389,650,5.2083" style="stroke:#333333;stroke-width:1.5625;fill:none;"/><text fill="#2E2E2E" font-family="Segoe Print" font-size="12.5" lengthAdjust="spacing" textLength="103.125" x="658.3333" y="33.5836">CustomerService</text><polygon points="650,647.4406,650,647.6595,659.9826,647.009,669.9653,647.6419,679.9479,647.8569,689.9306,646.6975,699.9132,647.3596,709.8958,646.9963,719.8785,647.0411,729.8611,647.3696,739.8438,646.7204,749.8264,648.0173,759.809,646.784,769.7917,647.4406,769.7654,647.3772,770.4383,647.8232,770.9588,647.9012,771.5685,648.1947,772.1444,648.4067,772.7379,648.661,772.7952,648.6847,773.0587,649.282,773.414,649.9173,773.6854,650.5179,773.9322,651.1083,773.9583,651.6073,774.0467,651.6073,774.1193,659.3534,774.2022,667.0996,773.7079,674.8458,774.1939,682.592,773.9583,690.3381,773.8632,690.2987,773.8855,690.9983,773.3114,691.4509,773.2041,692.0968,773.2199,692.7937,772.7379,693.2844,772.7315,693.2688,772.1627,693.5623,771.6044,693.8812,771.0255,694.1502,770.3804,694.2595,769.7917,694.5048,769.7917,694.804,759.809,693.9085,749.8264,694.801,739.8438,695.0758,729.8611,694.9679,719.8785,695.1434,709.8958,694.0016,699.9132,693.8254,689.9306,693.8575,679.9479,694.4435,669.9653,694.3001,659.9826,695.2146,650,694.5048,649.9768,694.4488,649.3652,694.1507,648.8518,694.0899,648.1436,693.5587,647.574,693.362,647.0537,693.2844,647.2619,693.3706,646.9494,692.753,646.8012,692.2035,646.2183,691.4739,646.1798,690.9698,645.8333,690.3381,646.0383,690.3381,645.6693,682.592,645.8,674.8458,645.8771,667.0996,646.0596,659.3534,645.8333,651.6073,645.832,651.6067,646.2258,651.0795,646.1438,650.3552,646.3483,649.7495,646.9712,649.3172,647.0537,648.661,646.9585,648.431,647.7106,648.5802,648.2597,648.2391,648.7859,647.8428,649.3637,647.5712,650,647.4406" style="stroke:#333333;stroke-width:1.5625;fill:none;"/><text fill="#2E2E2E" font-family="Segoe Print" font-size="12.5" lengthAdjust="spacing" textLength="103.125" x="658.3333" y="675.8158">CustomerService</text><polygon points="871.875,5.2083,871.875,5.4273,882.2049,4.7767,892.5347,5.4097,902.8646,5.6247,913.1944,4.4652,923.5243,5.1274,933.8542,4.7641,944.184,4.8089,954.5139,5.1373,964.8438,4.4882,975.1736,5.785,985.5035,4.5518,995.8333,5.2083,995.8071,5.1449,996.48,5.591,997.0004,5.669,997.6102,5.9625,998.1861,6.1744,998.7796,6.4287,998.8369,6.4524,999.1004,7.0498,999.4557,7.6851,999.7271,8.2857,999.9738,8.876,1000,9.375,1000.0884,9.375,1000.161,17.1212,1000.2438,24.8674,999.7496,32.6135,1000.2356,40.3597,1000,48.1059,999.9049,48.0665,999.9272,48.7661,999.353,49.2186,999.2458,49.8645,999.2616,50.5614,998.7796,51.0522,998.7731,51.0365,998.2043,51.33,997.6461,51.6489,997.0672,51.9179,996.4221,52.0272,995.8333,52.2725,995.8333,52.5717,985.5035,51.6763,975.1736,52.5688,964.8438,52.8436,954.5139,52.7356,944.184,52.9111,933.8542,51.7693,923.5243,51.5932,913.1944,51.6253,902.8646,52.2112,892.5347,52.0678,882.2049,52.9823,871.875,52.2725,871.8518,52.2165,871.2402,51.9184,870.7268,51.8576,870.0186,51.3264,869.449,51.1297,868.9287,51.0522,869.1369,51.1384,868.8244,50.5208,868.6762,49.9712,868.0933,49.2416,868.0548,48.7375,867.7083,48.1059,867.9133,48.1059,867.5443,40.3597,867.675,32.6135,867.7521,24.8674,867.9346,17.1212,867.7083,9.375,867.707,9.3744,868.1008,8.8472,868.0188,8.1229,868.2233,7.5172,868.8462,7.0849,868.9287,6.4287,868.8335,6.1987,869.5856,6.3479,870.1347,6.0069,870.6609,5.6105,871.2387,5.3389,871.875,5.2083" style="stroke:#333333;stroke-width:1.5625;fill:none;"/><text fill="#2E2E2E" font-family="Segoe Print" font-size="12.5" lengthAdjust="spacing" textLength="107.2917" x="880.2083" y="33.5836">TradeDealService</text><polygon points="871.875,647.4406,871.875,647.6595,882.2049,647.009,892.5347,647.6419,902.8646,647.8569,913.1944,646.6975,923.5243,647.3596,933.8542,646.9963,944.184,647.0411,954.5139,647.3696,964.8438,646.7204,975.1736,648.0173,985.5035,646.784,995.8333,647.4406,995.8071,647.3772,996.48,647.8232,997.0004,647.9012,997.6102,648.1947,998.1861,648.4067,998.7796,648.661,998.8369,648.6847,999.1004,649.282,999.4557,649.9173,999.7271,650.5179,999.9738,651.1083,1000,651.6073,1000.0884,651.6073,1000.161,659.3534,1000.2438,667.0996,999.7496,674.8458,1000.2356,682.592,1000,690.3381,999.9049,690.2987,999.9272,690.9983,999.353,691.4509,999.2458,692.0968,999.2616,692.7937,998.7796,693.2844,998.7731,693.2688,998.2043,693.5623,997.6461,693.8812,997.0672,694.1502,996.4221,694.2595,995.8333,694.5048,995.8333,694.804,985.5035,693.9085,975.1736,694.801,964.8438,695.0758,954.5139,694.9679,944.184,695.1434,933.8542,694.0016,923.5243,693.8254,913.1944,693.8575,902.8646,694.4435,892.5347,694.3001,882.2049,695.2146,871.875,694.5048,871.8518,694.4488,871.2402,694.1507,870.7268,694.0899,870.0186,693.5587,869.449,693.362,868.9287,693.2844,869.1369,693.3706,868.8244,692.753,868.6762,692.2035,868.0933,691.4739,868.0548,690.9698,867.7083,690.3381,867.9133,690.3381,867.5443,682.592,867.675,674.8458,867.7521,667.0996,867.9346,659.3534,867.7083,651.6073,867.707,651.6067,868.1008,651.0795,868.0188,650.3552,868.2233,649.7495,868.8462,649.3172,868.9287,648.661,868.8335,648.431,869.5856,648.5802,870.1347,648.2391,870.6609,647.8428,871.2387,647.5712,871.875,647.4406" style="stroke:#333333;stroke-width:1.5625;fill:none;"/><text fill="#2E2E2E" font-family="Segoe Print" font-size="12.5" lengthAdjust="spacing" textLength="107.2917" x="880.2083" y="675.8158">TradeDealService</text><polygon fill="#4D4D4D" points="275,102.4618,275,102.5347,277.0833,102.3179,279.1667,102.5289,281.25,102.6005,283.3333,102.214,285.4167,102.4618,285.3357,102.4618,284.9724,112.8606,285.0172,123.2595,285.3457,133.6583,284.6965,144.0572,285.9934,154.4561,284.7601,164.8549,285.2107,175.2538,285.8666,185.6527,285.3273,196.0515,285.4877,206.4504,285.3834,216.8493,285.6026,227.2481,285.6658,237.647,286.0268,248.0459,286.1157,258.4447,286.1242,268.8436,285.6819,279.2425,285.8996,289.6413,286.1482,300.0402,284.6654,310.439,286.1234,320.8379,285.1078,331.2368,285.9727,341.6356,284.901,352.0345,285.3453,362.4334,286.1892,372.8322,285.3659,383.2311,285.5264,393.63,285.7694,404.0288,285.8502,414.4277,285.4126,424.8266,285.4167,435.2254,285.4167,435.3252,283.3333,435.0267,281.25,435.3242,279.1667,435.4158,277.0833,435.3798,275,435.2254,275.6386,435.2254,274.4968,424.8266,274.3206,414.4277,274.3527,404.0288,274.9387,393.63,274.7953,383.2311,275.7098,372.8322,274.818,362.4334,274.6427,352.0345,275.2378,341.6356,274.3054,331.2368,274.4592,320.8379,275.676,310.439,275.4538,300.0402,275.7651,289.6413,274.6648,279.2425,275.3325,268.8436,275.615,258.4447,274.5079,248.0459,274.9001,237.647,275.1312,227.2481,275.6789,216.8493,274.9956,206.4504,275.4818,196.0515,274.4231,185.6527,274.2945,175.2538,275.5246,164.8549,274.2532,154.4561,275.5302,144.0572,275.2152,133.6583,274.7209,123.2595,274.6315,112.8606,275,102.4618" style="stroke:#555555;stroke-width:1.0416666666666667;"/><polygon fill="#4D4D4D" points="482.2917,149.526,482.2917,149.5989,484.375,149.3821,486.4583,149.5931,488.5417,149.6647,490.625,149.2783,492.7083,149.526,492.6274,149.526,492.2641,158.9388,492.3089,168.3516,492.6373,177.7645,491.9882,187.1773,492.7083,196.5902,492.7083,196.7824,490.625,196.3713,488.5417,196.5215,486.4583,196.7402,484.375,196.5604,482.2917,196.5902,482.3627,196.5902,482.2584,187.1773,482.4776,177.7645,482.5408,168.3516,482.9018,158.9388,482.2917,149.526" style="stroke:#555555;stroke-width:1.0416666666666667;"/><polygon fill="#4D4D4D" points="704.6875,243.6544,704.6875,243.7274,706.7708,243.5105,708.8542,243.7215,710.9375,243.7932,713.0208,243.4067,715.1042,243.6544,715.0232,243.6544,714.6599,253.0672,714.7047,262.4801,715.0332,271.8929,714.384,281.3057,715.1042,290.7186,715.1042,290.9108,713.0208,290.4997,710.9375,290.6499,708.8542,290.8686,706.7708,290.6888,704.6875,290.7186,704.7586,290.7186,704.6542,281.3057,704.8735,271.8929,704.9366,262.4801,705.2976,253.0672,704.6875,243.6544" style="stroke:#555555;stroke-width:1.0416666666666667;"/><polygon fill="#4D4D4D" points="928.6458,482.2896,928.6458,482.3626,930.7292,482.1458,932.8125,482.3567,934.8958,482.4284,936.9792,482.0419,939.0625,482.2896,938.9815,482.2896,938.6182,492.8212,938.663,503.3529,938.9915,513.8845,938.3423,524.4161,939.6392,534.9477,938.406,545.4793,938.8565,556.0109,939.5124,566.5426,938.9731,577.0742,939.1336,587.6058,939.0292,598.1374,939.2485,608.669,939.3116,619.2006,939.0625,629.7323,939.0625,629.9356,936.9792,629.9653,934.8958,629.9681,932.8125,629.8207,930.7292,629.8932,928.6458,629.7323,929.3773,629.7323,927.8946,619.2006,929.3526,608.669,928.337,598.1374,929.2019,587.6058,928.1302,577.0742,928.5745,566.5426,929.4183,556.0109,928.5951,545.4793,928.7555,534.9477,928.9986,524.4161,929.0794,513.8845,928.6418,503.3529,928.945,492.8212,928.6458,482.2896" style="stroke:#555555;stroke-width:1.0416666666666667;"/><polygon fill="#333333" points="262.5,98.2951,262.5271,98.3628,264.5299,98.9948,266.6916,100.0241,268.8015,100.9239,270.7413,101.3984,272.9167,102.4618,272.9066,102.4367,270.7783,103.1576,268.7005,104.0048,266.6579,104.9398,264.4942,105.5722,262.5,106.6284,262.6359,106.7643,263.1786,105.6403,264.1181,104.9132,265.1061,104.2345,265.8123,103.274,266.6667,102.4618,266.6834,102.4785,265.8255,101.6206,265.0438,100.8389,264.2254,100.0205,263.4771,99.2722,262.5,98.2951" style="stroke:#333333;stroke-width:1.0416666666666667;"/><path d="M77.0833,102.4618 L77.0833,102.7537 L87.7315,101.8863 L98.3796,102.7302 L109.0278,103.0169 L119.6759,101.4709 L130.3241,102.3538 L140.9722,101.8694 L151.6204,101.9291 L162.2685,102.3671 L172.9167,101.5015 L183.5648,103.2307 L194.213,101.5864 L204.8611,102.1871 L215.5093,103.0617 L226.1574,102.3426 L236.8056,102.5565 L247.4537,102.4174 L258.1019,102.7097 L268.75,102.4618 " fill="none" style="stroke:#333333;stroke-width:3.125;"/><text fill="#2E2E2E" font-family="Segoe Print" font-size="12.5" font-weight="bold" lengthAdjust="spacing" textLength="9.375" x="89.5833" y="88.9811">1</text><text fill="#2E2E2E" font-family="Segoe Print" font-size="12.5" lengthAdjust="spacing" textLength="143.75" x="113.5417" y="88.9811">send a booking request</text><polygon fill="#333333" points="469.7917,145.3593,469.8188,145.4271,471.8216,146.0591,473.9833,147.0883,476.0932,147.9881,478.033,148.4626,480.2083,149.526,480.1983,149.5009,478.07,150.2218,475.9922,151.069,473.9495,152.004,471.7858,152.6364,469.7917,153.6926,469.9276,153.8286,470.4703,152.7045,471.4098,151.9774,472.3977,151.2987,473.1039,150.3382,473.9583,149.526,473.9751,149.5427,473.1172,148.6848,472.3355,147.9031,471.517,147.0847,470.7688,146.3364,469.7917,145.3593" style="stroke:#333333;stroke-width:1.0416666666666667;"/><path d="M285.4167,149.526 L285.4167,149.8179 L296.0069,148.9505 L306.5972,149.7944 L317.1875,150.0811 L327.7778,148.5351 L338.3681,149.418 L348.9583,148.9336 L359.5486,148.9933 L370.1389,149.4313 L380.7292,148.5657 L391.3194,150.2949 L401.9097,148.6506 L412.5,149.2513 L423.0903,150.1259 L433.6806,149.4068 L444.2708,149.6207 L454.8611,149.4816 L465.4514,149.7739 L476.0417,149.526 " fill="none" style="stroke:#333333;stroke-width:3.125;"/><text fill="#2E2E2E" font-family="Segoe Print" font-size="12.5" font-weight="bold" lengthAdjust="spacing" textLength="9.375" x="297.9167" y="136.0453">2</text><text fill="#2E2E2E" font-family="Segoe Print" font-size="12.5" lengthAdjust="spacing" textLength="107.2917" x="321.875" y="136.0453">fetch latest rates</text><polygon fill="#333333" points="296.875,192.4235,296.9021,192.4913,294.7382,193.1233,292.7333,194.1525,290.6765,195.0524,288.4497,195.5268,286.4583,196.5902,286.4483,196.5651,288.4867,197.286,290.5755,198.1332,292.6995,199.0682,294.7025,199.7006,296.875,200.7568,297.0109,200.8928,295.8869,199.7688,295.1598,199.0416,294.4811,198.3629,293.5206,197.4024,292.7083,196.5902,292.7251,196.6069,293.5338,195.749,294.4188,194.9673,295.267,194.1489,296.1855,193.4006,296.875,192.4235" style="stroke:#333333;stroke-width:1.0416666666666667;"/><path d="M290.625,196.5902 L290.625,196.8821 L300.932,196.0147 L311.239,196.8586 L321.5461,197.1453 L331.8531,195.5993 L342.1601,196.4822 L352.4671,195.9978 L362.7741,196.0575 L373.0811,196.4955 L383.3882,195.6299 L393.6952,197.3591 L404.0022,195.7148 L414.3092,196.3155 L424.6162,197.1901 L434.9232,196.471 L445.2303,196.6849 L455.5373,196.5458 L465.8443,196.8381 L476.1513,196.9223 L486.4583,196.5902 " fill="none" style="stroke:#333333;stroke-width:3.125;"/><text fill="#2E2E2E" font-family="Segoe Print" font-size="12.5" font-weight="bold" lengthAdjust="spacing" textLength="9.375" x="308.3333" y="183.1095">3</text><text fill="#2E2E2E" font-family="Segoe Print" font-size="12.5" lengthAdjust="spacing" textLength="70.8333" x="332.2917" y="183.1095">latest rates</text><polygon fill="#333333" points="692.1875,239.4877,692.2146,239.5555,694.2174,240.1875,696.3791,241.2167,698.489,242.1166,700.4288,242.5911,702.6042,243.6544,702.5941,243.6293,700.4658,244.3502,698.388,245.1974,696.3454,246.1324,694.1817,246.7648,692.1875,247.821,692.3234,247.957,692.8661,246.833,693.8056,246.1058,694.7936,245.4271,695.4998,244.4667,696.3542,243.6544,696.3709,243.6711,695.513,242.8132,694.7313,242.0315,693.9129,241.2131,693.1646,240.4648,692.1875,239.4877" style="stroke:#333333;stroke-width:1.0416666666666667;"/><path d="M285.4167,243.6544 L285.4167,243.9463 L295.7422,243.0789 L306.0677,243.9228 L316.3932,244.2095 L326.7188,242.6636 L337.0443,243.5464 L347.3698,243.062 L357.6953,243.1217 L368.0208,243.5597 L378.3464,242.6941 L388.6719,244.4233 L398.9974,242.779 L409.3229,243.3797 L419.6484,244.2543 L429.974,243.5352 L440.2995,243.7492 L450.625,243.61 L460.9505,243.9023 L471.276,243.9865 L481.6016,244.4678 L491.9271,244.5864 L502.2526,244.5978 L512.5781,244.008 L522.9036,244.2982 L533.2292,244.6297 L543.5547,242.6527 L553.8802,244.5968 L564.2057,243.2426 L574.5313,244.3958 L584.8568,242.9668 L595.1823,243.5592 L605.5078,244.6844 L615.8333,243.5867 L626.1589,243.8006 L636.4844,244.1247 L646.8099,244.2325 L657.1354,243.649 L667.4609,244.0533 L677.7865,242.8594 L688.112,244.0494 L698.4375,243.6544 " fill="none" style="stroke:#333333;stroke-width:3.125;"/><text fill="#2E2E2E" font-family="Segoe Print" font-size="12.5" font-weight="bold" lengthAdjust="spacing" textLength="9.375" x="297.9167" y="230.1737">4</text><text fill="#2E2E2E" font-family="Segoe Print" font-size="12.5" lengthAdjust="spacing" textLength="135.4167" x="321.875" y="230.1737">request customer info</text><polygon fill="#333333" points="296.875,286.5519,296.9021,286.6197,294.7382,287.2517,292.7333,288.2809,290.6765,289.1808,288.4497,289.6553,286.4583,290.7186,286.4483,290.6935,288.4867,291.4144,290.5755,292.2616,292.6995,293.1966,294.7025,293.829,296.875,294.8853,297.0109,295.0212,295.8869,293.8972,295.1598,293.17,294.4811,292.4913,293.5206,291.5309,292.7083,290.7186,292.7251,290.7353,293.5338,289.8774,294.4188,289.0958,295.267,288.2773,296.1855,287.5291,296.875,286.5519" style="stroke:#333333;stroke-width:1.0416666666666667;"/><path d="M290.625,290.7186 L290.625,291.0105 L301.0807,290.1431 L311.5365,290.987 L321.9922,291.2737 L332.4479,289.7278 L342.9036,290.6107 L353.3594,290.1262 L363.8151,290.1859 L374.2708,290.6239 L384.7266,289.7584 L395.1823,291.4875 L405.638,289.8432 L416.0938,290.4439 L426.5495,291.3185 L437.0052,290.5995 L447.4609,290.8134 L457.9167,290.6742 L468.3724,290.9665 L478.8281,291.0507 L489.2839,291.532 L499.7396,291.6506 L510.1953,291.662 L520.651,291.0722 L531.1068,291.3625 L541.5625,291.6939 L552.0182,289.7169 L562.474,291.661 L572.9297,290.3068 L583.3854,291.46 L593.8411,290.0311 L604.2969,290.6235 L614.7526,291.7486 L625.2083,290.6509 L635.6641,290.8648 L646.1198,291.1889 L656.5755,291.2967 L667.0313,290.7132 L677.487,291.1175 L687.9427,289.9236 L698.3984,291.1136 L708.8542,290.7186 " fill="none" style="stroke:#333333;stroke-width:3.125;"/><text fill="#2E2E2E" font-family="Segoe Print" font-size="12.5" font-weight="bold" lengthAdjust="spacing" textLength="9.375" x="308.3333" y="277.238">5</text><text fill="#2E2E2E" font-family="Segoe Print" font-size="12.5" lengthAdjust="spacing" textLength="93.75" x="332.2917" y="277.238">cunstomer info</text><path d="M188.5417,308.4269 L188.5417,386.5519 A4.1667,4.1667 0 0 0 192.7083,390.7186 L366.6667,390.7186 A4.1667,4.1667 0 0 0 370.8333,386.5519 L370.8333,314.6769 L360.4167,304.2603 L192.7083,304.2603 A4.1667,4.1667 0 0 0 188.5417,308.4269 " fill="#17A2B8" style="stroke:#1592A6;stroke-width:1.0416666666666667;"/><path d="M360.4167,304.2603 L360.4167,312.5936 A2.0833,2.0833 0 0 0 362.5,314.6769 L370.8333,314.6769 L360.4167,304.2603 " fill="#17A2B8" style="stroke:#1592A6;stroke-width:1.0416666666666667;"/><text fill="#FFFFFF" font-family="Segoe Print" font-size="12.5" lengthAdjust="spacing" textLength="121.875" x="200" y="330.5522">decide rate offering</text><text fill="#FFFFFF" font-family="Segoe Print" font-size="12.5" lengthAdjust="spacing" textLength="144.7917" x="200" y="352.6164">based on customer tier</text><text fill="#FFFFFF" font-family="Segoe Print" font-size="12.5" lengthAdjust="spacing" textLength="78.125" x="200" y="374.6806">and amount</text><polygon fill="#333333" points="88.5417,431.0588,88.5688,431.1265,86.4049,431.7585,84.3999,432.7877,82.3432,433.6876,80.1163,434.1621,78.125,435.2254,78.115,435.2004,80.1533,435.9213,82.2422,436.7685,84.3662,437.7035,86.3692,438.3359,88.5417,439.3921,88.6776,439.528,87.5536,438.404,86.8264,437.6769,86.1477,436.9981,85.1873,436.0377,84.375,435.2254,84.3918,435.2422,85.2005,434.3842,86.0855,433.6026,86.9337,432.7841,87.8521,432.0359,88.5417,431.0588" style="stroke:#333333;stroke-width:1.0416666666666667;"/><path d="M82.2917,435.2254 L82.2917,435.5173 L92.6535,434.65 L103.0154,435.4939 L113.3772,435.7805 L123.739,434.2346 L134.1009,435.1175 L144.4627,434.6331 L154.8246,434.6928 L165.1864,435.1308 L175.5482,434.2652 L185.9101,435.9944 L196.2719,434.35 L206.6338,434.9507 L216.9956,435.8253 L227.3575,435.1063 L237.7193,435.3202 L248.0811,435.1811 L258.443,435.4734 L268.8048,435.5576 L279.1667,435.2254 " fill="none" style="stroke:#333333;stroke-width:3.125;"/><text fill="#2E2E2E" font-family="Segoe Print" font-size="12.5" font-weight="bold" lengthAdjust="spacing" textLength="9.375" x="100" y="421.7448">6</text><text fill="#2E2E2E" font-family="Segoe Print" font-size="12.5" lengthAdjust="spacing" textLength="83.3333" x="123.9583" y="421.7448">reserved rate</text><polygon fill="#333333" points="916.1458,478.123,916.1729,478.1907,918.1757,478.8227,920.3374,479.8519,922.4474,480.7518,924.3872,481.2263,926.5625,482.2896,926.5525,482.2646,924.4242,482.9855,922.3464,483.8327,920.3037,484.7677,918.14,485.4001,916.1458,486.4563,916.2818,486.5922,916.8244,485.4682,917.7639,484.7411,918.7519,484.0624,919.4581,483.1019,920.3125,482.2896,920.3293,482.3064,919.4713,481.4485,918.6897,480.6668,917.8712,479.8483,917.123,479.1001,916.1458,478.123" style="stroke:#333333;stroke-width:1.0416666666666667;"/><path d="M77.0833,482.2896 L77.0833,482.5816 L87.5193,481.7142 L97.9552,482.5581 L108.3912,482.8447 L118.8272,481.2988 L129.2631,482.1817 L139.6991,481.6973 L150.135,481.757 L160.571,482.195 L171.0069,481.3294 L181.4429,483.0586 L191.8789,481.4142 L202.3148,482.015 L212.7508,482.8896 L223.1867,482.1705 L233.6227,482.3844 L244.0586,482.2453 L254.4946,482.5376 L264.9306,482.6218 L275.3665,483.1031 L285.8025,483.2217 L296.2384,483.233 L306.6744,482.6433 L317.1103,482.9335 L327.5463,483.265 L337.9823,481.288 L348.4182,483.232 L358.8542,481.8778 L369.2901,483.031 L379.7261,481.6021 L390.162,482.1945 L400.598,483.3196 L411.034,482.2219 L421.4699,482.4359 L431.9059,482.7599 L442.3418,482.8677 L452.7778,482.2842 L463.2137,482.6885 L473.6497,481.4946 L484.0856,482.6846 L494.5216,483.051 L504.9576,482.907 L515.3935,483.1411 L525.8295,481.6187 L536.2654,481.3838 L546.7014,481.4266 L557.1373,482.2079 L567.5733,482.0167 L578.0093,483.236 L588.4452,482.047 L598.8812,481.8132 L609.3171,482.6067 L619.7531,481.3635 L630.189,481.5686 L640.625,483.191 L651.061,482.8947 L661.4969,483.3098 L671.9329,481.8427 L682.3688,482.733 L692.8048,483.1097 L703.2407,481.6335 L713.6767,482.1565 L724.1127,482.4646 L734.5486,483.1949 L744.9846,482.2838 L755.4205,482.9321 L765.8565,481.5205 L776.2924,481.349 L786.7284,482.9891 L797.1644,481.2939 L807.6003,482.9965 L818.0363,482.5766 L828.4722,481.9175 L838.9082,481.7983 L849.3441,482.9268 L859.7801,481.8739 L870.216,483.1117 L880.652,481.5219 L891.088,483.1472 L901.5239,482.9623 L911.9599,482.6299 L922.3958,482.2896 " fill="none" style="stroke:#333333;stroke-width:3.125;"/><text fill="#2E2E2E" font-family="Segoe Print" font-size="12.5" font-weight="bold" lengthAdjust="spacing" textLength="9.375" x="89.5833" y="468.809">7</text><text fill="#2E2E2E" font-family="Segoe Print" font-size="12.5" lengthAdjust="spacing" textLength="154.1667" x="113.5417" y="468.809">submit forex transaction</text><polygon fill="#333333" points="291.6667,525.1872,291.6938,525.2549,289.5299,525.8869,287.5249,526.9162,285.4682,527.816,283.2413,528.2905,281.25,529.3538,281.24,529.3288,283.2783,530.0497,285.3672,530.8969,287.4912,531.8319,289.4942,532.4643,291.6667,533.5205,291.8026,533.6564,290.6786,532.5324,289.9514,531.8053,289.2727,531.1266,288.3123,530.1661,287.5,529.3538,287.5168,529.3706,288.3255,528.5127,289.2105,527.731,290.0587,526.9126,290.9771,526.1643,291.6667,525.1872" style="stroke:#333333;stroke-width:1.0416666666666667;"/><path d="M285.4167,529.3538 L285.4167,529.6458 L295.7745,528.7784 L306.1324,529.6223 L316.4903,529.909 L326.8481,528.363 L337.206,529.2459 L347.5638,528.7615 L357.9217,528.8212 L368.2796,529.2592 L378.6374,528.3936 L388.9953,530.1228 L399.3532,528.4785 L409.711,529.0792 L420.0689,529.9538 L430.4267,529.2347 L440.7846,529.4486 L451.1425,529.3095 L461.5003,529.6018 L471.8582,529.686 L482.2161,530.1673 L492.5739,530.2859 L502.9318,530.2973 L513.2897,529.7075 L523.6475,529.9977 L534.0054,530.3292 L544.3632,528.3522 L554.7211,530.2962 L565.079,528.942 L575.4368,530.0952 L585.7947,528.6663 L596.1526,529.2587 L606.5104,530.3838 L616.8683,529.2862 L627.2261,529.5001 L637.584,529.8242 L647.9419,529.9319 L658.2997,529.3484 L668.6576,529.7527 L679.0155,528.5588 L689.3733,529.7488 L699.7312,530.1152 L710.089,529.9712 L720.4469,530.2053 L730.8048,528.6829 L741.1626,528.448 L751.5205,528.4908 L761.8784,529.2721 L772.2362,529.0809 L782.5941,530.3002 L792.9519,529.1112 L803.3098,528.8774 L813.6677,529.6709 L824.0255,528.4277 L834.3834,528.6328 L844.7413,530.2552 L855.0991,529.9589 L865.457,530.374 L875.8149,528.9069 L886.1727,529.7972 L896.5306,530.1739 L906.8884,528.6977 L917.2463,529.2207 L927.6042,529.3538 " fill="none" style="stroke:#333333;stroke-width:3.125;"/><text fill="#2E2E2E" font-family="Segoe Print" font-size="12.5" font-weight="bold" lengthAdjust="spacing" textLength="9.375" x="303.125" y="515.8732">8</text><text fill="#2E2E2E" font-family="Segoe Print" font-size="12.5" lengthAdjust="spacing" textLength="132.2917" x="327.0833" y="515.8732">calidate rate booking</text><path d="M860.4167,547.0622 L860.4167,581.4372 A4.1667,4.1667 0 0 0 864.5833,585.6038 L1003.125,585.6038 A4.1667,4.1667 0 0 0 1007.2917,581.4372 L1007.2917,553.3122 L996.875,542.8955 L864.5833,542.8955 A4.1667,4.1667 0 0 0 860.4167,547.0622 " fill="#17A2B8" style="stroke:#1592A6;stroke-width:1.0416666666666667;"/><path d="M996.875,542.8955 L996.875,551.2288 A2.0833,2.0833 0 0 0 998.9583,553.3122 L1007.2917,553.3122 L996.875,542.8955 " fill="#17A2B8" style="stroke:#1592A6;stroke-width:1.0416666666666667;"/><text fill="#FFFFFF" font-family="Segoe Print" font-size="12.5" lengthAdjust="spacing" textLength="114.5833" x="871.875" y="569.1874">process trade deal</text><polygon fill="#333333" points="88.5417,625.5656,88.5688,625.6334,86.4049,626.2654,84.3999,627.2946,82.3432,628.1944,80.1163,628.6689,78.125,629.7323,78.115,629.7072,80.1533,630.4281,82.2422,631.2753,84.3662,632.2103,86.3692,632.8427,88.5417,633.8989,88.6776,634.0349,87.5536,632.9108,86.8264,632.1837,86.1477,631.505,85.1873,630.5445,84.375,629.7323,84.3918,629.749,85.2005,628.8911,86.0855,628.1094,86.9337,627.291,87.8521,626.5427,88.5417,625.5656" style="stroke:#333333;stroke-width:1.0416666666666667;"/><path d="M82.2917,629.7323 L82.2917,630.0242 L92.6639,629.1568 L103.0361,630.0007 L113.4083,630.2874 L123.7805,628.7414 L134.1527,629.6243 L144.5249,629.1399 L154.8971,629.1996 L165.2693,629.6376 L175.6415,628.772 L186.0137,630.5012 L196.3859,628.8569 L206.7581,629.4576 L217.1303,630.3322 L227.5025,629.6131 L237.8747,629.827 L248.247,629.6879 L258.6192,629.9802 L268.9914,630.0644 L279.3636,630.5457 L289.7358,630.6643 L300.108,630.6757 L310.4802,630.0859 L320.8524,630.3761 L331.2246,630.7076 L341.5968,628.7306 L351.969,630.6746 L362.3412,629.3204 L372.7134,630.4737 L383.0856,629.0447 L393.4578,629.6371 L403.83,630.7623 L414.2022,629.6646 L424.5744,629.8785 L434.9466,630.2026 L445.3189,630.3104 L455.6911,629.7268 L466.0633,630.1312 L476.4355,628.9372 L486.8077,630.1272 L497.1799,630.4936 L507.5521,630.3497 L517.9243,630.5837 L528.2965,629.0613 L538.6687,628.8264 L549.0409,628.8692 L559.4131,629.6505 L569.7853,629.4593 L580.1575,630.6787 L590.5297,629.4897 L600.9019,629.2558 L611.2741,630.0493 L621.6463,628.8061 L632.0185,629.0113 L642.3908,630.6336 L652.763,630.3374 L663.1352,630.7524 L673.5074,629.2853 L683.8796,630.1756 L694.2518,630.5523 L704.624,629.0761 L714.9962,629.5991 L725.3684,629.9072 L735.7406,630.6375 L746.1128,629.7264 L756.485,630.3747 L766.8572,628.9631 L777.2294,628.7916 L787.6016,630.4317 L797.9738,628.7365 L808.346,630.4392 L818.7182,630.0192 L829.0904,629.3602 L839.4627,629.2409 L849.8349,630.3694 L860.2071,629.3165 L870.5793,630.5543 L880.9515,628.9646 L891.3237,630.5898 L901.6959,630.4049 L912.0681,630.0725 L922.4403,629.7978 L932.8125,629.7323 " fill="none" style="stroke:#333333;stroke-width:3.125;"/><text fill="#2E2E2E" font-family="Segoe Print" font-size="12.5" font-weight="bold" lengthAdjust="spacing" textLength="9.375" x="100" y="616.2516">9</text><text fill="#2E2E2E" font-family="Segoe Print" font-size="12.5" lengthAdjust="spacing" textLength="129.1667" x="123.9583" y="616.2516">trade deal processed</text><!--MD5=[19dfc007777942000679d8629bc45b9e]
@startuml
!include https://raw.githubusercontent.com/bschwarz/puml-themes/master/themes/sketchy-outline/puml-theme-sketchy-outline.puml

autonumber
participant Client
participant RateService
participant RateProviderAPI 
participant CustomerService
participant TradeDealService

Client -> RateService : send a booking request
activate RateService

RateService -> RateProviderAPI : fetch latest rates
activate RateProviderAPI

RateProviderAPI -> RateService : latest rates
deactivate RateProviderAPI

RateService -> CustomerService : request customer info
activate CustomerService

CustomerService -> RateService : cunstomer info
deactivate CustomerService

note over RateService : decide rate offering \nbased on customer tier \nand amount

RateService -> Client : reserved rate
deactivate RateService

Client -> TradeDealService : submit forex transaction
activate TradeDealService

TradeDealService -> RateService : calidate rate booking
note over TradeDealService : process trade deal

TradeDealService -> Client : trade deal processed
deactivate TradeDealService

@enduml

@startuml



skinparam backgroundColor transparent
skinparam useBetaStyle false
skinparam handwritten true
skinparam shadowing false







skinparam defaultFontName       "Segoe Print"
skinparam defaultFontSize       12
skinparam dpi                   100
skinparam shadowing             false
skinparam roundcorner           8
skinparam ParticipantPadding    40
skinparam BoxPadding            40
skinparam Padding               5
skinparam ArrowColor            #555555
skinparam stereotype {
    CBackgroundColor transparent
    CBorderColor #4d4d4d
    ABackgroundColor transparent
    ABorderColor #24963e
    IBackgroundColor transparent
    IBorderColor #c6303e
    EBackgroundColor transparent
    EBorderColor #e6ae06
    NBackgroundColor transparent
    NBorderColor #1592a6
}
skinparam title {
	FontColor	                 #2e2e2e
	BorderColor	                 #4d4d4d
	FontSize	    	         20
	BorderRoundCorner            8
	BorderThickness 	         1
	BackgroundColor              transparent
}

skinparam legend {
	BackgroundColor transparent
	BorderColor #4d4d4d
	FontColor #2e2e2e
}

skinparam swimlane {
	BorderColor #17a2b8
	BorderThickness 2
	TitleBackgroundColor  transparent
	TitleFontColor #2e2e2e
}


skinparam activity {
		FontColor #2e2e2e
	BorderColor #333333
	BackgroundColor transparent
	BarColor #28a745
	StartColor #17a2b8
	EndColor #17a2b8
	DiamondBackgroundColor transparent
  	DiamondBorderColor #4d4d4d
  	DiamondFontColor #2e2e2e
}


skinparam participant {
		FontColor #2e2e2e
	BorderColor #333333
	BackgroundColor transparent
	ParticipantBorderThickness 2
}


skinparam actor {
		FontColor #2e2e2e
	BorderColor #333333
	BackgroundColor transparent
}


skinparam arrow {
	Thickness 3
	Color #333333
	FontColor #2e2e2e
}


skinparam sequence {
	BorderColor #333333
	TitleFontColor #2e2e2e
	BackgroundColor transparent
	StartColor #333333
	EndColor #333333
	BoxBackgroundColor transparent
	BoxBorderColor #555555
	BoxFontColor #555555
	DelayFontColor #555555
	LifeLineBorderColor #555555
	LifeLineBorderThickness 2
	LifeLineBackgroundColor #4d4d4d
	GroupBorderColor #555555
	GroupFontColor #555555
	GroupHeaderFontColor #17a2b8
	GroupBackgroundColor #555555
	GroupHeaderBackgroundColor transparent
	DividerBackgroundColor #555555
    DividerBorderColor #555555
    DividerBorderThickness 2
    DividerFontColor #ffffff
	ReferenceBackgroundColor transparent
	ReferenceBorderColor #555555
	ReferenceFontColor #555555
	ReferenceHeaderFontColor #17a2b8
	ReferenceHeaderBackgroundColor #555555
	StereotypeFontColor #2e2e2e
}


skinparam partition {
	BorderColor #333333
	FontColor #333333
	BackgroundColor transparent
}


skinparam collections {
		FontColor #2e2e2e
	BorderColor #333333
	BackgroundColor transparent
}


skinparam control {
		FontColor #2e2e2e
	BorderColor #333333
	BackgroundColor transparent
}


skinparam entity {
		FontColor #2e2e2e
	BorderColor #333333
	BackgroundColor transparent
}


skinparam boundary {
		FontColor #2e2e2e
	BorderColor #333333
	BackgroundColor transparent
}


skinparam agent {
	BackgroundColor #ffc107
	BorderColor #ffc720
	FontColor #555555
}


skinparam note {
	BorderThickness 1
	BackgroundColor #17a2b8
	BorderColor #1592a6
	FontColor #ffffff
}


skinparam artifact {
	BackgroundColor transparent
	BorderColor #4d4d4d
	FontColor #4d4d4d
}


skinparam component {
		FontColor #2e2e2e
	BorderColor #333333
	BackgroundColor transparent
}


skinparam interface {
	BackgroundColor  transparent
	BorderColor  #dc3545
	FontColor #555555
}


skinparam storage {
	BackgroundColor transparent
  	BorderColor #e6ae06
	FontColor #e6ae06
}


skinparam node {
	BackgroundColor  transparent
	BorderColor #ffffff
	FontColor #ffffff
}


skinparam cloud {
	BackgroundColor transparent
	BorderColor #F2FCFE
	FontColor #2e2e2e
}


skinparam database {
		FontColor #2e2e2e
	BorderColor #333333
	BackgroundColor transparent
}


skinparam class {
		FontColor #2e2e2e
	BorderColor #333333
	BackgroundColor transparent
	HeaderBackgroundColor transparent
	StereotypeFontColor #555555
	BorderThickness 1
	AttributeFontColor #555555
	AttributeFontSize 11
}


skinparam object {
		FontColor #2e2e2e
	BorderColor #333333
	BackgroundColor transparent
	StereotypeFontColor #2e2e2e
	BorderThickness 1
	AttributeFontColor #2e2e2e
	AttributeFontSize 11
}


skinparam usecase {
		FontColor #2e2e2e
	BorderColor #333333
	BackgroundColor transparent
	BorderThickness 2
	StereotypeFontColor #333333
}


skinparam rectangle {
		FontColor #2e2e2e
	BorderColor #333333
	BackgroundColor transparent
	BorderThickness 2
	StereotypeFontColor #333333
}


skinparam package {
	BackgroundColor transparent
  	BorderColor #333333
	FontColor #333333
	BorderThickness 2
}


skinparam folder {
	BackgroundColor transparent
  	BorderColor #ffc107
	FontColor #ffc107
	BorderThickness 2
}


skinparam frame {
	BackgroundColor transparent
  	BorderColor #17a2b8
	FontColor #17a2b8
	BorderThickness 2
}


skinparam state {
		FontColor #2e2e2e
	BorderColor #333333
	BackgroundColor transparent
	StartColor #17a2b8
	EndColor #17a2b8
	AttributeFontColor #ffffff
	AttributeFontSize 11
}


skinparam queue {
		FontColor #2e2e2e
	BorderColor #333333
	BackgroundColor transparent
}


skinparam card {
	BackgroundColor transparent
	BorderColor #1592a6
	FontColor #1592a6
}


skinparam file {
	BackgroundColor transparent
	BorderColor #ffffff
	FontColor #ffffff
}



autonumber
participant Client
participant RateService
participant RateProviderAPI 
participant CustomerService
participant TradeDealService

Client -> RateService : send a booking request
activate RateService

RateService -> RateProviderAPI : fetch latest rates
activate RateProviderAPI

RateProviderAPI -> RateService : latest rates
deactivate RateProviderAPI

RateService -> CustomerService : request customer info
activate CustomerService

CustomerService -> RateService : cunstomer info
deactivate CustomerService

note over RateService : decide rate offering \nbased on customer tier \nand amount

RateService -> Client : reserved rate
deactivate RateService

Client -> TradeDealService : submit forex transaction
activate TradeDealService

TradeDealService -> RateService : calidate rate booking
note over TradeDealService : process trade deal

TradeDealService -> Client : trade deal processed
deactivate TradeDealService

@enduml

PlantUML version 1.2021.14(Fri Nov 12 17:46:50 CET 2021)
(GPL source distribution)
Java Runtime: OpenJDK Runtime Environment
JVM: OpenJDK 64-Bit Server VM
Default Encoding: Cp1252
Language: en
Country: US
--></g></svg>